<?xml version="1.0" encoding="UTF-8"?><svg xmlns="http://www.w3.org/2000/svg" xmlns:xlink="http://www.w3.org/1999/xlink" data-name="Layer 1" height="339.9" preserveAspectRatio="xMidYMid meet" version="1.0" viewBox="-62.7 0.0 544.9 339.9" width="544.9" zoomAndPan="magnify"><g id="change1_1"><path d="M393,147.3C362,94.94,304,60.62,235.7,60.62c-126.23,0-216.18,132.86-159.88,251.09l-54,28.15C-62.68,116.92,117.13,0,243.37,0,321.37,0,414,49.82,455,137.28Zm22,61.65c4.83,31.16,1.64,65.31-11.6,100.5l52.92,30.41C478.1,281.34,480.89,229,470.9,184Zm63.4-56.73a3.05,3.05,0,0,1,1.95,5.67c-49.94,28.6-217.17,123.65-234.85,124.16a48.1,48.1,0,0,1-2.74-96.16C253.41,185.59,424.77,160.2,478.47,152.22Z"/></g></svg>